<svg width="156" height="56" viewBox="0 0 156 56" fill="none" xmlns="http://www.w3.org/2000/svg">
<path fillRule="evenodd" clipRule="evenodd" d="M153.651 15.649C154.42 15.6755 154.751 15.7551 155.029 15.954C155.215 16.0999 155.493 16.3651 155.639 16.5508C155.785 16.7365 155.931 17.1741 155.971 17.5455C156.037 18.1025 155.997 18.3147 155.719 18.8054C155.507 19.19 155.202 19.4951 154.87 19.6675C154.499 19.8532 154.088 19.9327 153.425 19.9327C152.736 19.9327 152.378 19.8664 152.047 19.6675C151.795 19.5216 151.49 19.2564 151.344 19.0707C151.211 18.885 151.066 18.5269 151.026 18.2749C150.973 18.0229 150.973 17.5853 151.026 17.3068C151.066 17.0415 151.251 16.6304 151.41 16.4049C151.583 16.1662 151.927 15.9009 152.179 15.8081C152.458 15.6887 153.014 15.6357 153.651 15.649ZM110.035 15.649C110.804 15.6755 111.136 15.7551 111.414 15.954C111.6 16.0999 111.878 16.3651 112.024 16.5508C112.17 16.7365 112.315 17.1874 112.355 17.5455C112.421 18.1025 112.382 18.3147 112.103 18.8054C111.891 19.19 111.586 19.4951 111.255 19.6675C110.884 19.8532 110.473 19.9327 109.81 19.9327C109.121 19.9327 108.763 19.8664 108.431 19.6675C108.179 19.5216 107.874 19.2564 107.729 19.0707C107.596 18.885 107.45 18.5269 107.41 18.2749C107.357 18.0229 107.357 17.5853 107.41 17.32C107.45 17.0415 107.636 16.6304 107.795 16.4049C107.967 16.1662 108.312 15.9009 108.564 15.8081C108.842 15.6887 109.399 15.6357 110.035 15.649ZM146.267 17.1609C146.412 17.1742 146.797 17.2405 147.128 17.2802C147.46 17.32 148.096 17.5455 148.56 17.7842C149.011 18.0229 149.395 18.2351 149.382 18.2749C149.382 18.3147 149.143 18.9646 148.838 19.7338C148.547 20.503 148.268 21.1794 148.215 21.2325C148.162 21.2988 147.977 21.2723 147.791 21.1927C147.606 21.0998 147.248 21.0335 146.996 21.0335C146.744 21.0203 146.399 21.0601 146.227 21.1131C146.068 21.1529 145.856 21.3916 145.736 21.6569C145.63 21.9089 145.537 22.3598 145.537 23.1821H148.454V26.6303H145.537V36.8424H141.295V26.6303H139.174V23.1821H141.295L141.335 21.9619C141.362 20.954 141.441 20.5826 141.733 19.9327C141.945 19.4951 142.356 18.8717 142.661 18.5667C142.966 18.2484 143.496 17.8373 143.841 17.6649C144.199 17.4925 144.822 17.2935 145.233 17.2272C145.657 17.1742 146.121 17.1344 146.267 17.1609ZM81.1085 17.9434C81.7978 17.9832 82.7258 18.1025 83.1633 18.2086C83.6008 18.328 84.436 18.6463 85.0193 18.9248C85.6689 19.2298 86.3848 19.7073 87.6707 20.8876L86.3052 22.4394C85.5628 23.2882 84.9265 23.9778 84.8867 23.9778C84.8469 23.9778 84.542 23.7258 84.1841 23.4208C83.8394 23.1157 83.2296 22.7179 82.8319 22.5322C82.2088 22.2537 81.9039 22.2006 80.7771 22.2006C79.5574 22.1874 79.3851 22.2272 78.5896 22.5985C78.1124 22.824 77.4628 23.2749 77.1446 23.5932C76.8265 23.9115 76.442 24.442 76.2697 24.7736C76.1106 25.1051 75.9117 25.6356 75.8189 25.9672C75.7129 26.3253 75.6731 27.0547 75.6996 27.8239C75.7394 28.8849 75.8057 29.2165 76.1504 29.9459C76.3757 30.4234 76.8265 31.0732 77.1446 31.3915C77.4628 31.7098 77.9931 32.0945 78.3245 32.2669C78.6559 32.426 79.2525 32.6382 79.6502 32.7311C80.1009 32.8372 80.8036 32.8769 81.5062 32.8372C82.2353 32.7841 82.8584 32.6647 83.2959 32.4658C83.6538 32.3067 84.2769 31.9486 85.3507 31.1396L85.8412 31.9088C86.1064 32.3199 86.5836 33.0891 87.4851 34.5215L87.0476 34.9592C86.809 35.1979 86.2257 35.5958 85.7484 35.8345C85.2712 36.0732 84.5023 36.4048 84.025 36.5507C83.5478 36.7098 82.7789 36.8955 82.3016 36.9751C81.8244 37.0414 81.0554 37.1077 80.5782 37.1077C80.1009 37.1077 79.332 37.0414 78.8548 36.9618C78.3775 36.8955 77.5821 36.6833 77.0651 36.4976C76.5481 36.3252 75.8057 35.9804 75.408 35.7416C75.0103 35.5162 74.2281 34.8663 73.6846 34.3226C73.035 33.6727 72.5179 33.0096 72.1998 32.3995C71.9346 31.8955 71.59 31.06 71.4309 30.5427C71.2188 29.8664 71.1127 29.1502 71.0729 27.9566C71.0199 26.7497 71.0597 26.0335 71.2188 25.3041C71.3381 24.7338 71.696 23.7656 72.0407 23.0494C72.5577 22.0282 72.8626 21.5906 73.7376 20.7285C74.5197 19.946 75.1031 19.5083 75.872 19.1105C76.4553 18.8054 77.2905 18.4606 77.7279 18.328C78.1654 18.2086 78.815 18.0627 79.1862 17.9964C79.5441 17.9434 80.4191 17.9168 81.1085 17.9434ZM96.8843 22.5322C97.6399 22.5322 98.4884 22.6118 99.0054 22.7311C99.4827 22.8505 100.225 23.129 100.663 23.3545C101.113 23.5932 101.869 24.1767 102.399 24.7072C102.969 25.2643 103.473 25.9274 103.685 26.3651C103.871 26.7629 104.123 27.4526 104.242 27.8902C104.348 28.3279 104.441 29.19 104.441 29.8133C104.441 30.4366 104.348 31.2987 104.229 31.7364C104.123 32.174 103.831 32.8902 103.606 33.3279C103.38 33.7655 102.863 34.4552 102.452 34.8663C102.055 35.2642 101.418 35.7682 101.06 35.9804C100.689 36.1926 100.013 36.5109 99.5357 36.6833C98.9524 36.8955 98.263 37.0148 97.4146 37.0679C96.5396 37.1077 95.8502 37.0679 95.1609 36.922C94.6173 36.8159 93.7159 36.4843 93.1723 36.2191C92.5625 35.9008 91.8864 35.4101 91.3826 34.9194C90.8921 34.4287 90.4149 33.7921 90.163 33.2616C89.9244 32.7841 89.646 32.0414 89.5267 31.6037C89.4206 31.1661 89.3278 30.3969 89.3278 29.8796C89.3278 29.3756 89.3808 28.6197 89.4604 28.2218C89.5267 27.8239 89.7918 27.0812 90.0437 26.564C90.2956 26.06 90.7596 25.3438 91.0777 24.9725C91.4092 24.6144 91.9925 24.0972 92.3902 23.8187C92.7879 23.5534 93.4375 23.2086 93.8352 23.0494C94.2329 22.8903 94.803 22.7179 95.0946 22.6516C95.3863 22.5985 96.1949 22.5455 96.8843 22.5322ZM95.3332 26.5242C95.1344 26.6303 94.7897 26.9353 94.5776 27.1741C94.3655 27.4261 94.0738 27.8902 93.928 28.2218C93.7291 28.6462 93.6628 29.0971 93.6628 29.8133C93.6628 30.5958 93.7291 30.9539 93.981 31.4711C94.1533 31.8292 94.4848 32.2934 94.6969 32.5056C94.909 32.7311 95.3332 33.0228 95.6249 33.1687C96.0491 33.3677 96.354 33.4207 97.0964 33.3809C97.8786 33.3411 98.1305 33.2616 98.6077 32.93C98.9259 32.7178 99.3501 32.2669 99.5622 31.9353C99.7611 31.6037 99.9997 31.0069 100.079 30.6091C100.159 30.2112 100.185 29.5878 100.132 29.2165C100.092 28.8584 99.9599 28.3544 99.8539 28.129C99.7478 27.8902 99.4164 27.4128 99.0982 27.0812C98.7005 26.6436 98.3558 26.4314 97.8786 26.2855C97.5074 26.1794 97.0301 26.0998 96.818 26.1131C96.6059 26.1131 96.2612 26.1661 96.0624 26.2192C95.8635 26.2855 95.5321 26.4181 95.3332 26.5242ZM124.923 22.5587C126.036 22.5852 126.368 22.6383 126.978 22.9433C127.375 23.129 127.906 23.5004 128.144 23.7656C128.37 24.0309 128.688 24.4818 128.834 24.7736C128.979 25.0653 129.192 25.6489 129.298 26.0733C129.457 26.6834 129.497 27.7974 129.497 36.8424H125.254V32.373C125.254 29.9061 125.201 27.678 125.122 27.4261C125.055 27.1741 124.817 26.7895 124.591 26.564C124.233 26.2324 124.048 26.1529 123.359 26.1131C122.722 26.0733 122.391 26.1263 121.914 26.3518C121.476 26.5375 121.158 26.816 120.548 27.7311L120.482 36.8424H116.24V22.7842H120.349V23.5136C120.349 23.9115 120.376 24.2431 120.415 24.2431C120.455 24.2431 120.8 24.0176 121.184 23.7258C121.556 23.4473 122.02 23.1423 122.205 23.0362C122.391 22.9433 122.775 22.7974 123.067 22.6913C123.398 22.5852 124.101 22.5322 124.923 22.5587ZM107.755 22.7842H111.997V36.8424H107.755V22.7842ZM151.371 22.7842H155.613V36.8424H151.371V22.7842Z" fill="#FBFCFF"/>
<path d="M136.246 32.6913C136.06 32.5454 135.609 32.426 135.132 32.3863C134.641 32.3465 134.151 32.3995 133.873 32.5056C133.621 32.5985 133.276 32.8504 133.117 33.0626C132.958 33.2881 132.759 33.6727 132.679 33.9247C132.613 34.1767 132.547 34.6276 132.547 34.9194C132.547 35.2112 132.653 35.6886 132.786 35.9804C132.931 36.2854 133.223 36.6303 133.488 36.7894C133.74 36.9486 134.177 37.1077 134.469 37.1475C134.761 37.2005 135.238 37.174 135.53 37.0944C135.821 37.0281 136.259 36.7761 136.497 36.5374C136.736 36.312 137.001 35.9008 137.081 35.6488C137.16 35.3968 137.2 34.8531 137.174 34.4287C137.134 33.938 137.028 33.5534 136.842 33.3014C136.683 33.1024 136.418 32.8239 136.246 32.6913Z" fill="#FBFCFF"/>
<path fillRule="evenodd" clipRule="evenodd" d="M3.38053 16.5242C3.52636 16.564 6.08496 17.625 9.08104 18.8982C12.0771 20.1582 14.7418 21.3651 15.0202 21.564C15.2986 21.7629 15.6698 22.1343 15.8554 22.3863C16.0277 22.6383 16.2663 23.0892 16.3724 23.381C16.4784 23.6727 16.558 24.3359 16.558 24.8398C16.5712 25.556 16.4917 25.9274 16.2398 26.4579C16.0542 26.8425 15.683 27.3862 15.4179 27.6647C15.1395 27.93 14.6225 28.3013 13.5884 28.8186L0.596565 28.7655L0.304911 28.434C0.13257 28.2483 0 27.9433 0 27.7576C0 27.5719 0.159084 27.2669 0.729135 26.7098L6.69478 26.7894C11.5336 26.8557 12.7665 26.8292 13.1907 26.6833C13.4824 26.5905 13.8801 26.3252 14.0922 26.0998C14.291 25.8876 14.4899 25.4764 14.5297 25.1979C14.5694 24.9327 14.5694 24.5083 14.5297 24.2695C14.4899 24.0441 14.291 23.6595 14.0922 23.4473C13.8005 23.129 12.5013 22.5189 8.21934 20.7152C4.61344 19.19 2.61163 18.2882 2.41277 18.076C2.25369 17.8903 2.12112 17.6118 2.12112 17.4394C2.12112 17.2802 2.21392 17.015 2.33323 16.8558C2.43929 16.6967 2.66466 16.5375 2.82374 16.511C2.98282 16.4845 3.23471 16.4845 3.38053 16.5242ZM25.122 39.1899C25.4799 39.2164 26.0898 39.3888 26.4477 39.5612C26.8322 39.7336 27.3757 40.158 27.7469 40.5824C28.0916 40.967 28.4628 41.5506 28.5821 41.8821C28.7412 42.3729 28.7677 43.593 28.7677 55.1446L28.4363 55.4762C28.2639 55.6619 28.0253 55.8078 27.906 55.8078C27.7999 55.8078 27.548 55.7282 27.3359 55.6221C27.1371 55.5293 26.9382 55.3436 26.8719 55.2242C26.8189 55.1049 26.7791 52.2534 26.7791 48.8715C26.7791 42.7707 26.7791 42.7442 26.4742 42.227C26.3151 41.9484 25.9705 41.6036 25.7186 41.471C25.4667 41.3251 25.0292 41.219 24.7508 41.219C24.4857 41.219 24.0482 41.3251 23.7831 41.4445C23.4914 41.5904 23.1732 41.8954 23.0009 42.2137C22.8285 42.5055 21.7282 45.0784 20.5483 47.9166C19.1961 51.1792 18.2814 53.195 18.0825 53.3807C17.9102 53.5531 17.6185 53.6858 17.433 53.6858C17.2474 53.6858 16.9557 53.5399 16.7701 53.3542C16.5845 53.1685 16.4387 52.9033 16.4387 52.7574C16.4387 52.6115 17.4462 50.0916 18.6791 47.1473C19.8988 44.2163 21.0256 41.5771 21.1714 41.2853C21.3173 40.9936 21.6884 40.5294 21.9934 40.2509C22.285 39.9856 22.7357 39.6673 22.9744 39.5479C23.1997 39.4286 23.6372 39.2827 23.9289 39.2296C24.2205 39.1633 24.7641 39.1501 25.122 39.1899ZM27.8927 0.0256961C28.1181 0.0787461 28.3965 0.198109 28.5025 0.317471C28.6749 0.476621 28.7147 1.44478 28.7677 6.77631C28.8207 12.4129 28.8605 13.076 29.0726 13.4739C29.1919 13.6993 29.4968 14.0309 29.7354 14.19C29.9608 14.3492 30.3983 14.5083 30.6899 14.5349C31.0611 14.5747 31.3926 14.5083 31.7903 14.3094C32.0952 14.1635 32.4266 13.8983 32.5327 13.7391C32.6387 13.5667 33.7523 10.954 34.9985 7.93015C36.2446 4.9063 37.3582 2.34663 37.4908 2.2538C37.6101 2.16096 37.915 2.09465 38.1536 2.09465C38.4188 2.09465 38.6707 2.20075 38.843 2.39968C38.9888 2.55883 39.1081 2.81082 39.1081 2.95671C39.1081 3.1026 38.0874 5.70204 36.8412 8.72589C35.595 11.7497 34.4947 14.3757 34.4019 14.5614C34.3091 14.7471 33.9114 15.1847 33.5269 15.5296C33.0895 15.9142 32.5592 16.2457 32.1482 16.3784C31.6975 16.5242 31.1937 16.564 30.5574 16.5242C29.9741 16.4845 29.4173 16.3518 29.0593 16.1794C28.7544 16.0203 28.2772 15.6622 27.9988 15.3969C27.7336 15.1184 27.3624 14.6012 26.8454 13.5667L26.7791 0.635771L27.1238 0.290946C27.4022 0.0124336 27.548 -0.0406164 27.8927 0.0256961ZM17.6981 1.96202C17.8041 1.96202 18.0428 2.0416 18.2284 2.13443C18.414 2.21401 18.6526 2.47926 18.7454 2.69146C18.8514 2.91692 19.859 5.35722 20.9858 8.12908C22.1127 10.9009 23.1069 13.4076 23.1997 13.6993C23.3058 14.0176 23.3456 14.5879 23.3058 15.1582C23.266 15.7418 23.1335 16.2988 22.9611 16.6569C22.802 16.9619 22.4441 17.4394 22.179 17.7179C21.9006 17.9831 21.3835 18.3545 21.0123 18.5269C20.4953 18.7789 20.1241 18.8584 19.3552 18.8584C18.5996 18.8584 18.2019 18.7921 17.6981 18.5667C17.1678 18.3279 16.1338 17.373 12.5544 13.7922C8.08677 9.33597 8.07351 9.32271 8.11328 8.80547C8.1398 8.43412 8.24585 8.20866 8.48448 8.02298C8.69659 7.86383 8.93522 7.79752 9.14733 7.83731C9.35944 7.8771 11.0563 9.49512 13.721 12.1741C16.0542 14.5216 18.1488 16.5375 18.3609 16.6436C18.5863 16.763 18.9973 16.8558 19.2889 16.8558C19.5806 16.8558 20.0181 16.763 20.2567 16.6436C20.4821 16.511 20.8135 16.2192 20.9726 15.9937C21.1317 15.755 21.2907 15.3174 21.3173 15.0256C21.3703 14.5747 21.0256 13.6463 19.1033 8.89831C17.8572 5.80815 16.8364 3.14238 16.8364 2.95671C16.8496 2.77103 16.9955 2.466 17.1678 2.29358C17.3402 2.10791 17.5788 1.96202 17.6981 1.96202ZM46.7972 7.93015C47.0491 7.93015 47.3672 8.03624 47.4998 8.16887C47.6456 8.30149 47.7252 8.58001 47.7252 8.85852C47.7119 9.28292 47.3938 9.64101 43.5625 13.5004C41.2823 15.7948 39.2805 17.8903 39.1347 18.1423C38.9756 18.3943 38.843 18.8319 38.843 19.1104C38.843 19.3757 38.9491 19.8133 39.0816 20.0786C39.2009 20.3571 39.4926 20.6887 39.7047 20.8346C39.9168 20.9937 40.3676 21.1396 40.699 21.1661C41.2293 21.2192 41.8921 20.9804 46.9298 18.885C50.0319 17.5985 52.67 16.5508 52.8026 16.5508C52.9219 16.5508 53.1738 16.6967 53.3594 16.8823C53.545 17.068 53.6908 17.3598 53.6908 17.5455C53.6908 17.7311 53.5583 18.0229 53.3992 18.1953C53.2003 18.4075 51.119 19.3359 47.5926 20.808C42.2633 23.0361 42.0512 23.1024 41.0304 23.1555C40.235 23.1953 39.824 23.1422 39.3733 22.9698C39.0419 22.8372 38.4586 22.4393 38.0741 22.068C37.5968 21.6038 37.2919 21.1661 37.1063 20.7019C36.9473 20.251 36.8545 19.6675 36.8545 19.1104C36.8545 18.4208 36.934 18.0362 37.1991 17.4791C37.4775 16.8823 38.2995 15.9805 41.9319 12.3466C46.0548 8.20866 46.3597 7.93015 46.7972 7.93015ZM55.0828 26.8823L55.3877 27.2138C55.5468 27.3995 55.6794 27.678 55.6794 27.8239C55.6794 27.9698 55.6396 28.182 55.5866 28.3013C55.5203 28.4207 55.3214 28.6064 55.1226 28.6992C54.8309 28.8451 53.5318 28.8849 48.6929 28.8849C43.0057 28.8849 42.5947 28.8982 42.1573 29.1369C41.8789 29.2828 41.5739 29.6143 41.3883 29.9592C41.2293 30.2775 41.0967 30.7284 41.0967 30.9406C41.0967 31.166 41.2027 31.5507 41.3353 31.8026C41.4546 32.0546 41.7463 32.3862 41.9584 32.5321C42.1838 32.678 44.7821 33.8053 47.7252 35.0387C50.6815 36.2721 53.2003 37.3729 53.3329 37.4923C53.4787 37.6249 53.5583 37.8901 53.5583 38.1686C53.5583 38.4206 53.4522 38.7389 53.3196 38.8716C53.1871 39.0174 52.9087 39.097 52.6303 39.097C52.3386 39.097 50.0982 38.2217 46.7309 36.8159C43.7348 35.5692 41.0569 34.3888 40.7653 34.1899C40.4736 33.991 40.0759 33.5931 39.877 33.3146C39.6782 33.0228 39.4131 32.5056 39.2937 32.1342C39.1479 31.6833 39.0949 31.1926 39.1214 30.609C39.1612 30.052 39.2937 29.5348 39.4926 29.1501C39.6517 28.8186 39.9831 28.3544 40.2085 28.1157C40.4471 27.8769 40.8448 27.5454 41.0967 27.3862C41.3486 27.2271 41.8921 27.0281 42.2898 26.9353C42.8466 26.8027 44.5037 26.7762 55.0828 26.8823ZM14.7418 32.479C15.2455 32.4658 15.7758 32.5719 16.2796 32.7575C16.7568 32.9432 17.2606 33.2615 17.6451 33.6461C18.0295 34.044 18.3477 34.5347 18.5465 35.052C18.7852 35.6886 18.8382 36.0334 18.7984 36.7761C18.7587 37.4525 18.6393 37.8769 18.3875 38.3676C18.1356 38.8318 16.664 40.3967 13.6149 43.4338C10.2344 46.829 9.13407 47.8503 8.88219 47.8503C8.69659 47.8503 8.39168 47.7442 8.19282 47.585C7.90117 47.3861 7.82163 47.2137 7.82163 46.829C7.80837 46.3383 7.98071 46.1659 12.1699 42.0148C15.7228 38.5135 16.558 37.6116 16.7038 37.174C16.7966 36.8689 16.8231 36.4445 16.7701 36.1793C16.7171 35.9273 16.5182 35.5161 16.3326 35.2642C16.1338 35.0122 15.7626 34.7204 15.5107 34.6143C15.2588 34.5082 14.8346 34.4551 14.5827 34.4949C14.3308 34.5215 11.6396 35.5825 8.61705 36.8291C5.59445 38.0758 3.0226 39.097 2.91654 39.097C2.81048 39.097 2.5586 38.9909 2.35975 38.8318C2.08135 38.6328 1.98855 38.4472 1.98855 38.1421C1.98855 37.9034 2.05483 37.5983 2.14763 37.4657C2.24043 37.3464 4.82555 36.2058 7.88791 34.9326C10.9503 33.6727 13.5752 32.5984 13.721 32.5719C13.8668 32.5321 14.3308 32.4923 14.755 32.479H14.7418ZM36.417 36.8557C36.9473 36.8424 37.504 36.9485 38.0078 37.1209C38.6972 37.3862 39.1214 37.7575 43.2311 41.8689C47.5131 46.1394 47.7119 46.3516 47.7119 46.829C47.7119 47.2137 47.6324 47.3728 47.354 47.585C47.1419 47.7442 46.837 47.8503 46.6514 47.8503C46.3995 47.8503 45.3124 46.8423 41.9451 43.4736C39.5456 41.0731 37.4112 39.044 37.2124 38.9777C37.0003 38.8981 36.6423 38.8318 36.417 38.8318C36.1783 38.8318 35.7409 38.9644 35.4625 39.1368C35.1708 39.296 34.8261 39.6143 34.6936 39.8265C34.561 40.0387 34.4417 40.4896 34.4417 40.8211C34.4284 41.3119 34.8394 42.4392 36.6954 46.9219C37.9415 49.9457 38.9623 52.5717 38.9623 52.7574C38.9623 52.9431 38.8297 53.2216 38.6574 53.394C38.4851 53.5664 38.2067 53.699 37.968 53.699C37.7559 53.699 37.4643 53.5929 37.345 53.4603C37.2256 53.3277 36.1253 50.8343 34.9189 47.9166C33.7125 44.9988 32.6255 42.2535 32.5062 41.8158C32.3868 41.3119 32.3338 40.7946 32.3868 40.4233C32.4399 40.0917 32.6122 39.5347 32.7713 39.1633C32.9436 38.8052 33.3413 38.2482 33.6595 37.9299C33.9909 37.6116 34.561 37.2403 34.9189 37.1076C35.3034 36.9618 35.9397 36.8557 36.417 36.8557Z" fill="#FBFCFF"/>
<path d="M29.1364 22.2537C28.752 22.1741 28.1687 22.1211 27.8372 22.1344C27.5058 22.1476 26.9755 22.2007 26.6441 22.267C26.3127 22.3333 25.7161 22.5455 25.3184 22.7444C24.9207 22.9434 24.2844 23.4076 23.9132 23.7789C23.542 24.137 23.0912 24.7073 22.8924 25.0388C22.7068 25.3704 22.4549 25.9937 22.3356 26.4314C22.2295 26.8691 22.1367 27.5455 22.1367 27.9301C22.1367 28.3014 22.203 28.938 22.2825 29.3226C22.3621 29.694 22.5742 30.2908 22.7465 30.6489C22.9189 30.9937 23.4226 31.6303 23.8601 32.068C24.2976 32.5056 24.8942 32.9831 25.1858 33.129C25.4775 33.2749 26.0608 33.4871 26.4718 33.5932C26.896 33.6993 27.5721 33.7921 27.9698 33.7921C28.3675 33.7921 29.0569 33.6993 29.4944 33.5932C29.9318 33.4738 30.5417 33.2351 30.8466 33.0494C31.1647 32.877 31.7348 32.4128 32.106 32.0282C32.4904 31.6303 32.9809 30.9672 33.1931 30.5295C33.4052 30.1051 33.6438 29.3359 33.7101 28.8187C33.8161 28.129 33.8161 27.6516 33.6836 26.9619C33.604 26.4579 33.3787 25.7418 33.1931 25.3704C33.0075 25.0123 32.4904 24.3359 32.0397 23.885C31.589 23.4208 30.8996 22.9036 30.5151 22.7179C30.1439 22.5322 29.5076 22.32 29.1364 22.2537Z" fill="#FBFCFF"/>
</svg>
